<svg width="131" height="44" class="css-8bflks ehhjadp0"><g fill="none" fill-rule="evenodd"><path d="M110.327 9.232l-4.915 2.867 2.458 1.435 2.457-1.434V9.232zm0 0l-4.915-2.868 4.915-2.867v5.735z" fill="#D6DE23"></path><path fill="#009ADE" d="M110.327 9.232l-4.915 2.867-4.916-2.867 4.916-2.868z"></path><path fill="#EE412F" d="M125.07.629v5.736l4.917-2.868z"></path><path d="M110.327 9.232V12.1l4.915-2.868v11.471l-4.915-2.868v8.603l19.66-11.47-19.66-11.471v5.735zm-9.83 0l4.915-2.868-4.916-2.867v5.735zm0 5.736l4.915-2.869-4.916-2.867v5.736zM88.091 43.739l10.214-5.959-10.214-5.96v11.92z" fill="#39C1D6"></path><path d="M74.184 34.253v-4.867l4.172 2.434-4.172 2.433zM93.2 14.968V9.231l4.917 2.869-4.917 2.868zm-80.193 2.744h2.189v-1.736h-2.19v1.736zm-3.561 0h2.189v-1.736h-2.19v1.736zm4.87 8.717l-.326-1.03c-.074.15-.664 1.179-2.243 1.179-1.417 0-3.094-.776-3.094-3.237V19.02h2.198v4.337c0 1.103.59 1.596 1.358 1.596 1.004 0 1.619-.805 1.619-1.88V19.02h2.16v7.41h-1.673zM7.987 14.97v1.916H5.129v9.554h-2.27v-9.554H0v-1.917h7.988zm12.54 2.948l-.007 1.254c.519-1.081 1.316-1.335 2.808-1.335v2.162h-.276c-1.427 0-2.448.721-2.448 2.558v3.883h-2.189v-8.522h2.113zm25.287-2.949v1.917h-2.858v9.554h-2.27v-9.554h-2.86v-1.917h7.988zm35.932 9.944c-1.5 0-2.718-1.23-2.718-2.746 0-1.518 1.217-2.746 2.718-2.746 1.5 0 2.717 1.228 2.717 2.746 0 1.517-1.216 2.746-2.717 2.746zm0-7.581c-2.643 0-4.783 2.164-4.783 4.835 0 2.67 2.14 4.835 4.783 4.835 2.643 0 4.785-2.165 4.785-4.835s-2.142-4.835-4.785-4.835zm8 .586l.356 1.13c.357-.736 1.378-1.293 2.335-1.293.989 0 1.93.59 2.319 1.524.422-.836 1.33-1.524 2.723-1.524 1.736 0 3.016 1.081 3.016 3.555v5.13h-2.19v-5.276c0-.87-.34-1.623-1.36-1.623-1.086 0-1.557.868-1.557 1.983v4.916H93.2v-5.392c0-.754-.356-1.507-1.346-1.507-1.086 0-1.573.868-1.573 1.966v4.933h-2.19v-8.522h1.655zM71.351 14.6l.002 7.07 2.815-3.753h2.61l-3.34 4 3.193 4.522h-2.448l-2.01-2.967-.812.918v2.049h-2.188V15.844l2.178-1.244zm-44.15 0l.002 7.07 2.813-3.753h2.61l-3.34 4 3.195 4.522h-2.449l-2.01-2.967-.811.918v2.049h-2.189V15.844l2.179-1.244zm36.44 3.154c2.464 0 3.94 1.655 3.94 4.228 0 .476-.049.869-.049.869h-5.967c.097 1.344 1.265 1.95 2.448 1.95.779 0 1.8-.214 2.416-.542l.746 1.606c-.908.492-2.189.738-3.21.738-2.87 0-4.703-1.786-4.703-4.392 0-2.622 1.784-4.457 4.378-4.457zm1.832 3.621c-.017-.984-.568-1.835-1.703-1.835-1.2 0-2.01.607-2.238 1.835h3.94zM57.01 14.61v9.52c0 .474.275.688.762.688.113 0 .357-.033.518-.066v1.688c-.437.082-.988.164-1.491.164-1.022 0-1.978-.393-1.978-2.328v-8.43l2.189-1.236zm-7.8 3.145c2.466 0 3.94 1.655 3.94 4.228 0 .476-.048.869-.048.869h-5.967c.098 1.344 1.265 1.95 2.448 1.95.779 0 1.8-.214 2.417-.542l.746 1.606c-.909.492-2.19.738-3.211.738-2.87 0-4.702-1.786-4.702-4.392 0-2.622 1.783-4.457 4.378-4.457zm1.833 3.621c-.016-.984-.568-1.835-1.702-1.835-1.2 0-2.011.607-2.238 1.835h3.94z" fill="#003864"></path><path fill="#009ADE" d="M115.242 9.232l-4.915 2.868v5.736l4.915 2.867z"></path><path fill="#003864" d="M105.412 14.968l4.915 2.868V12.1zM62.436 30.525c-.716-.103-1.146.39-1.3.811l-.065-.81h-.62v3.834h.751v-1.777c0-.79.402-1.438 1.204-1.32l.03-.738zm-3.073-.98c0 .257-.16.375-.43.375-.263 0-.424-.118-.424-.376 0-.25.16-.376.423-.376.27 0 .431.125.431.376zm-.037 4.815h-.751v-3.29h-.467v-.545h1.218v3.835zm-1.547-3.835c-.715-.103-1.146.39-1.3.811l-.065-.81h-.62v3.834h.752v-1.777c0-.79.401-1.438 1.204-1.32l.029-.738zm-3.073-.98c0 .257-.16.375-.43.375-.263 0-.424-.118-.424-.376 0-.25.16-.376.424-.376.27 0 .43.125.43.376zm-.036 4.815h-.752v-3.29h-.467v-.545h1.219v3.835zm-2.628-4.941H51.4l-.11 1.106h-.54v.546h.54v2.176c0 .892.372 1.172 1.059 1.172.262 0 .554-.044.766-.125l-.03-.524c-.102.03-.342.089-.532.089-.35 0-.511-.148-.511-.635v-2.153h1.05v-.546h-1.05V29.42zm-2.679 0h-.642l-.11 1.106h-.54v.546h.54v2.176c0 .892.373 1.172 1.059 1.172.263 0 .554-.044.766-.125l-.03-.524c-.101.03-.342.089-.532.089-.35 0-.51-.148-.51-.635v-2.153h1.05v-.546h-1.05V29.42zm-4.62 2.75h2.175c0-.626-.292-1.105-1.029-1.105-.62 0-1.044.295-1.146 1.106zm-.022.547c.015.745.562 1.098 1.343 1.098.467 0 .927-.132 1.277-.295l.139.568a3.532 3.532 0 01-1.489.332c-1.335 0-2.058-.745-2.058-1.947 0-1.195.73-2.006 1.934-2.006 1.139 0 1.773.73 1.773 1.851 0 .177-.014.376-.021.399H44.72zm-1.467-1.984a3.946 3.946 0 00-1.394-.266c-.84 0-1.467.34-1.467 1.121 0 .797.657.981 1.248 1.15.562.148 1 .193 1 .613 0 .295-.22.516-.825.516-.584 0-1.08-.206-1.277-.295l-.16.516c.335.148.89.332 1.525.332.84 0 1.518-.339 1.518-1.128 0-.775-.643-.974-1.277-1.15-.592-.156-.978-.2-.978-.62 0-.295.226-.51.81-.51.518 0 .97.163 1.145.23l.132-.51zm-3.548 0a3.946 3.946 0 00-1.394-.266c-.839 0-1.466.34-1.466 1.121 0 .797.657.981 1.248 1.15.561.148 1 .193 1 .613 0 .295-.22.516-.825.516-.584 0-1.08-.206-1.277-.295l-.161.516c.336.148.89.332 1.525.332.84 0 1.518-.339 1.518-1.128 0-.775-.642-.974-1.277-1.15-.591-.156-.978-.2-.978-.62 0-.295.226-.51.81-.51.519 0 .97.163 1.146.23l.131-.51zm-3.715-1.188c0 .258-.16.376-.43.376-.263 0-.424-.118-.424-.376 0-.25.161-.376.424-.376.27 0 .43.125.43.376zm-.036 4.816h-.752v-3.29h-.467v-.545h1.219v3.835zm-2.037-5.162h-.81v2.286h-2.686v-2.286h-.81v5.162h.81v-2.242h2.686v2.242h.81v-5.162zm-7.466.346c0 .258-.161.376-.431.376-.263 0-.423-.118-.423-.376 0-.25.16-.376.423-.376.27 0 .43.125.43.376zm-.037 4.816h-.752v-3.29h-.467v-.545h1.22v3.835zm-2.087-5.398h-.752v4.705c0 .516.24.752.788.752.263 0 .438-.022.591-.051l-.022-.553a2.953 2.953 0 01-.314.014c-.16 0-.291-.044-.291-.295v-4.572zm-1.446 1.563c-.715-.103-1.146.39-1.299.811l-.065-.81h-.62v3.834h.751v-1.777c0-.79.401-1.438 1.204-1.32l.03-.738zm-5.715 1.645h2.175c0-.627-.292-1.106-1.029-1.106-.62 0-1.044.295-1.146 1.106zm-.022.546c.015.745.562 1.098 1.343 1.098.467 0 .927-.132 1.277-.295l.14.568a3.531 3.531 0 01-1.49.332c-1.335 0-2.058-.745-2.058-1.947 0-1.195.73-2.006 1.934-2.006 1.139 0 1.774.73 1.774 1.851 0 .177-.015.376-.022.399h-2.898zm-4.05-.967c0 .48.386.672.897.672.577 0 .898-.244.898-.672 0-.457-.358-.678-.89-.678-.54 0-.906.221-.906.678zm1.897-2.61c-.088.612-.416.863-1.015.863-.598 0-.926-.251-1.014-.863l.453-.052c.08.34.211.524.561.524.35 0 .482-.185.562-.524l.453.052zm-1.788 5.022c-.16.103-.27.236-.27.428 0 .405.474.472 1.058.472.547 0 1.066-.06 1.066-.487 0-.287-.234-.369-.628-.369h-.445c-.226 0-.511 0-.781-.044zm1.416-3.636h1.284v.516l-.598.008c.168.132.357.376.357.789 0 .708-.562 1.187-1.664 1.187-.32 0-.613-.037-.854-.118-.109.074-.204.177-.197.332.008.317.394.369.978.369h.577c.752 0 1.32.221 1.32.937 0 .907-.911 1.12-1.853 1.12-.876 0-1.773-.184-1.773-.958 0-.354.19-.59.423-.752a.658.658 0 01-.321-.598c0-.317.16-.56.387-.708-.227-.199-.358-.494-.358-.892 0-.87.628-1.29 1.686-1.29.197 0 .416.014.606.058zM8.67 32.17h2.175c0-.627-.292-1.106-1.03-1.106-.62 0-1.043.295-1.145 1.106zm-.022.546c.015.745.562 1.098 1.343 1.098a3.14 3.14 0 001.277-.295l.139.568a3.531 3.531 0 01-1.489.332c-1.336 0-2.058-.745-2.058-1.947 0-1.195.73-2.006 1.934-2.006 1.138 0 1.774.73 1.774 1.851 0 .177-.015.376-.022.399H8.649zm-5.095-2.884v3.894h1.103c.445 0 .904-.17 1.189-.457.343-.332.518-.87.518-1.512 0-.738-.248-1.306-.693-1.623a1.806 1.806 0 00-1.014-.302H3.554zm1.329-.634c.445 0 .854.125 1.19.324.802.48 1.145 1.328 1.145 2.242 0 .922-.35 1.814-1.146 2.272-.35.206-.795.324-1.19.324H2.745v-5.162h2.139z"></path></g></svg>